<svg width="139" height="49" viewBox="0 0 139 49" fill="none" xmlns="http://www.w3.org/2000/svg">
<g clip-path="url(#clip0_877_1090)">
<path d="M18.9505 12.8054H21.5499C21.7198 12.8054 21.8587 12.666 21.8587 12.5052C21.8587 12.3342 21.7198 12.1965 21.5499 12.1965H18.9505C18.7857 12.1965 18.6442 12.3342 18.6442 12.5052C18.6434 12.666 18.7849 12.8054 18.9505 12.8054ZM20.2498 35.3831C19.5061 35.3831 18.8987 35.9859 18.8987 36.7256C18.8987 37.4636 19.5052 38.0647 20.2498 38.0647C20.9969 38.0647 21.6016 37.4636 21.6016 36.7256C21.6016 35.9859 20.9969 35.3831 20.2498 35.3831ZM13.6181 34.2346H26.8832V14.7884H13.6181V34.2346ZM56.1491 27.8486C55.5202 27.8486 54.9525 28.0539 54.4392 28.4677C53.9259 28.8867 53.5938 29.4289 53.435 30.1001C53.3574 30.414 53.3185 30.6697 53.3185 30.8732V32.7673C53.3185 33.5959 53.5696 34.2954 54.0846 34.8649C54.5954 35.4292 55.2614 35.7157 56.0792 35.7157C57.0368 35.7157 57.79 35.3514 58.3249 34.616C58.8598 33.8832 59.1255 32.9161 59.1255 31.7112C59.1255 30.6064 58.877 29.6923 58.3723 28.9765C57.8185 28.2309 57.0791 27.8486 56.1491 27.8486ZM102.669 27.6921C101.649 27.6921 100.869 28.1411 100.337 29.0449C99.875 29.7889 99.649 30.697 99.649 31.771C99.649 32.8177 99.875 33.7096 100.337 34.4561C100.883 35.3583 101.654 35.8072 102.651 35.8072C103.621 35.8072 104.388 35.3523 104.935 34.4279C105.411 33.6728 105.647 32.7681 105.647 31.7274C105.647 30.6868 105.42 29.7889 104.966 29.0449C104.423 28.1411 103.662 27.6921 102.669 27.6921ZM68.7612 27.8486C68.1297 27.8486 67.5646 28.0539 67.0513 28.4677C66.5397 28.8867 66.2041 29.4289 66.0453 30.1001C65.9668 30.414 65.9297 30.6697 65.9297 30.8732V32.7673C65.9297 33.5959 66.1816 34.2954 66.6958 34.8649C67.2066 35.4292 67.8726 35.7157 68.6878 35.7157C69.6532 35.7157 70.3995 35.3514 70.9352 34.616C71.4718 33.8832 71.741 32.9161 71.741 31.7112C71.741 30.6064 71.4874 29.6923 70.9852 28.9765C70.4297 28.2309 69.6886 27.8486 68.7612 27.8486ZM42.4078 23.78H42.3629C42.2024 24.4504 41.954 25.4398 41.6046 26.7524L40.282 30.8723H44.5551L43.2144 26.7524C43.0703 26.3291 42.7994 25.338 42.4078 23.78ZM122.011 27.5681C121.179 27.5681 120.503 27.9205 119.981 28.6028C119.556 29.1475 119.302 29.8034 119.225 30.5645H124.537C124.551 29.818 124.389 29.1732 124.044 28.6234C123.601 27.9247 122.923 27.5681 122.011 27.5681ZM53.655 16.3421C53.6904 16.2344 53.6904 16.1258 53.6904 16.0172V15.2117C52.6344 15.1997 51.6276 15.4161 51.6276 16.3062C51.6276 16.8834 52.0038 17.1485 52.4765 17.1485C53.0839 17.1485 53.5083 16.7637 53.655 16.3421ZM39.7394 12.6609C39.5806 12.1675 39.4478 11.6142 39.3261 11.1456H39.3011C39.1803 11.6142 39.0466 12.1794 38.9129 12.6609L38.2831 14.6584H40.383L39.7394 12.6609ZM124.366 12.0828C126.284 12.0828 126.915 13.6468 126.915 14.9346C126.915 15.2117 126.891 15.428 126.866 15.5597H122.909C122.945 16.6183 123.771 17.0758 124.729 17.0758C125.421 17.0758 125.907 16.9681 126.367 16.8108L126.586 17.8224C126.076 18.0387 125.373 18.1952 124.522 18.1952C122.604 18.1952 121.476 17.0288 121.476 15.2365C121.477 13.6109 122.472 12.0828 124.366 12.0828ZM100.675 12.2153L100.747 13.0936H100.784C101.051 12.6361 101.695 12.0828 102.677 12.0828C103.709 12.0828 104.778 12.7447 104.778 14.5977V18.0746H103.285V14.7653C103.285 13.9239 102.97 13.286 102.156 13.286C101.562 13.286 101.148 13.7075 100.99 14.1522C100.94 14.2728 100.917 14.4532 100.917 14.6216V18.0746H99.4247V13.9598C99.4247 13.286 99.4005 12.7207 99.3755 12.2153H100.675ZM84.9966 12.0828C86.9144 12.0828 87.546 13.6468 87.546 14.9346C87.546 15.2117 87.5218 15.428 87.4968 15.5597H83.5395C83.5757 16.6183 84.4014 17.0758 85.3598 17.0758C86.0517 17.0758 86.5366 16.9681 86.9981 16.8108L87.2164 17.8224C86.7065 18.0387 86.0034 18.1952 85.1528 18.1952C83.235 18.1952 82.1065 17.0288 82.1065 15.2365C82.1082 13.6109 83.103 12.0828 84.9966 12.0828ZM78.8782 9.53284H80.3699V18.0746H78.8782V9.53284ZM67.0375 13.1295C66.4543 13.1295 65.8478 13.3108 65.4475 13.563L65.1559 12.6001C65.5924 12.3351 66.3576 12.0828 67.292 12.0828C69.1856 12.0828 69.7326 13.274 69.7326 14.5609V16.6671C69.7326 17.1964 69.7559 17.7138 69.8284 18.0746H68.4808L68.3721 17.4256H68.3358C67.9839 17.8822 67.3644 18.208 66.588 18.208C65.3974 18.208 64.7306 17.3538 64.7306 16.4627C64.7306 14.9945 66.0531 14.2368 68.2384 14.2488V14.1522C68.2392 13.7682 68.0805 13.1295 67.0375 13.1295ZM58.2101 9.77313C58.72 9.77313 59.0358 10.1229 59.0478 10.5795C59.0478 11.0122 58.72 11.3739 58.1981 11.3739C57.7003 11.3739 57.3733 11.013 57.3733 10.5795C57.3724 10.122 57.7124 9.77313 58.2101 9.77313ZM58.9495 12.2153V18.0746H57.4579V12.2153H58.9495ZM38.4151 9.96553H40.3209L42.9789 18.0746H41.3647L40.6254 15.7769H38.039L37.335 18.0755H35.7933L38.4151 9.96553ZM28.4732 36.8556C28.4732 38.2845 27.2982 39.4423 25.8574 39.4423H14.6456C13.2031 39.4423 12.0281 38.2845 12.0281 36.8556V12.1615C12.0281 10.7334 13.2031 9.57132 14.6456 9.57132H25.8566C27.2973 9.57132 28.4723 10.7326 28.4723 12.1615V36.8556H28.4732ZM46.4945 37.4482L45.008 32.8177H39.8351L38.4168 37.4482H35.7743L40.8946 21.673H44.0625L49.2129 37.4482H46.4945ZM47.0733 18.0746H45.6041L43.4068 12.2153H45.0218L45.9794 15.1877C46.1494 15.7051 46.271 16.1745 46.3806 16.656H46.4177C46.5264 16.1745 46.6601 15.7162 46.818 15.1877L47.7652 12.2153H49.3311L47.0733 18.0746ZM50.1472 16.4627C50.1472 14.9945 51.4697 14.2368 53.655 14.2488V14.1522C53.655 13.7674 53.4963 13.1295 52.4524 13.1295C51.8692 13.1295 51.2636 13.3108 50.8624 13.563L50.5708 12.6001C51.0073 12.3351 51.7726 12.0828 52.7077 12.0828C54.6005 12.0828 55.1475 13.274 55.1475 14.5609V16.6671C55.1475 17.1964 55.1708 17.7138 55.2441 18.0746H53.8966L53.7879 17.4256H53.7516C53.3996 17.8822 52.7802 18.208 52.0038 18.208C50.8141 18.2072 50.1472 17.3529 50.1472 16.4627ZM60.1323 36.2117C59.1842 37.2062 58.0022 37.7056 56.5951 37.7056C55.0716 37.7056 53.982 37.1686 53.3185 36.0877V42.0615H50.7709V29.8103C50.7709 28.5934 50.7382 27.3492 50.6735 26.0717H52.9174L53.058 27.8734H53.1029C53.957 26.5206 55.2458 25.8425 56.9799 25.8425C58.3335 25.8425 59.4602 26.3684 60.3712 27.4322C61.2736 28.4908 61.7274 29.8906 61.7274 31.6206C61.7266 33.5625 61.1969 35.0855 60.1323 36.2117ZM62.786 18.0746H61.2935V9.53284H62.786V18.0746ZM72.7409 36.2117C71.7902 37.2062 70.6134 37.7056 69.2029 37.7056C67.6836 37.7056 66.5923 37.1686 65.9289 36.0877V42.0615H63.3778V29.8103C63.3778 28.5934 63.345 27.3492 63.2838 26.0717H65.5217L65.6692 27.8734H65.7132C66.569 26.5206 67.8553 25.8425 69.5868 25.8425C70.9413 25.8425 72.0714 26.3684 72.9764 27.4322C73.884 28.4908 74.3352 29.8906 74.3352 31.6206C74.3352 33.5625 73.8055 35.0855 72.7409 36.2117ZM74.4931 18.2072C73.7278 18.2072 73.048 17.919 72.6235 17.1964H72.5994L72.5269 18.0746H71.2518C71.276 17.6778 71.301 17.028 71.301 16.4259V9.53198H72.7926V13.0209H72.8168C73.1809 12.4556 73.8244 12.0828 74.7105 12.0828C76.1555 12.0828 77.1865 13.274 77.1744 15.0543C77.1752 17.1605 75.8285 18.2072 74.4931 18.2072ZM87.3294 36.2998C86.2872 37.2216 84.8439 37.6791 82.9925 37.6791C81.2766 37.6791 79.904 37.3498 78.8679 36.6982L79.4606 34.5921C80.5778 35.2445 81.8046 35.5746 83.1401 35.5746C84.1046 35.5746 84.85 35.3574 85.3866 34.9316C85.9189 34.504 86.1872 33.9311 86.1872 33.2051C86.1872 32.574 85.9663 32.0353 85.5281 31.5958C85.0829 31.1588 84.3574 30.7569 83.3325 30.3789C80.5485 29.3519 79.1543 27.8452 79.1543 25.8647C79.1543 24.5692 79.64 23.5063 80.6261 22.6786C81.6105 21.8542 82.9123 21.4395 84.5359 21.4395C85.9836 21.4395 87.1879 21.6909 88.1499 22.1869L87.5063 24.2469C86.609 23.7654 85.5893 23.52 84.4522 23.52C83.5533 23.52 82.8485 23.7466 82.3412 24.1725C81.9176 24.5684 81.7045 25.0447 81.7045 25.6048C81.7045 26.2248 81.9486 26.7412 82.4361 27.1534C82.8623 27.5262 83.6344 27.9299 84.7482 28.366C86.1225 28.9081 87.1267 29.552 87.7746 30.2874C88.4182 31.0203 88.7425 31.9318 88.7425 33.0221C88.7408 34.3655 88.2672 35.4617 87.3294 36.2998ZM96.3198 27.9658H93.5047V33.4958C93.5047 34.8991 94.0042 35.5951 94.9964 35.5951C95.4528 35.5951 95.8272 35.5618 96.1291 35.4848L96.2016 37.3994C95.6969 37.5867 95.0369 37.6808 94.2182 37.6808C93.2157 37.6808 92.4229 37.3806 91.8587 36.7684C91.2867 36.1629 91.0046 35.1394 91.0046 33.7036V27.9658H89.33V26.0717H91.0046V23.9895L93.5047 23.2412V26.0725H96.3198V27.9658ZM94.8816 18.2072C93.2183 18.2072 91.9191 17.0758 91.9191 15.1869C91.9191 13.2612 93.1942 12.0828 94.9783 12.0828C96.7382 12.0828 97.9158 13.3108 97.9158 15.0911C97.9167 17.2452 96.3871 18.2072 94.8816 18.2072ZM106.783 35.9774C105.724 37.1292 104.323 37.7056 102.581 37.7056C100.893 37.7056 99.5463 37.1532 98.5482 36.0449C97.55 34.9393 97.0522 33.5369 97.0522 31.8549C97.0522 30.0925 97.5664 28.6482 98.5974 27.5254C99.63 26.3983 101.016 25.8434 102.763 25.8434C104.453 25.8434 105.805 26.3924 106.829 27.5049C107.803 28.5755 108.291 29.9685 108.291 31.6676C108.291 33.4206 107.79 34.8503 106.783 35.9774ZM109.418 12.2153H110.256V11.1199L111.725 10.7103V12.2145H113.145V13.321H111.725V15.9077C111.725 16.6303 111.919 16.9912 112.49 16.9912C112.757 16.9912 112.903 16.9784 113.073 16.9313L113.097 18.0498C112.878 18.1336 112.478 18.2072 112.017 18.2072C111.459 18.2072 111.008 18.0267 110.73 17.7257C110.402 17.3888 110.256 16.8475 110.256 16.0771V13.321H109.418V12.2153ZM115.965 28.295C115.714 28.2497 115.444 28.2309 115.162 28.2309C114.264 28.2309 113.573 28.5669 113.084 29.2356C112.658 29.8299 112.447 30.5688 112.447 31.4803V37.4482H109.896V29.6504C109.896 28.3472 109.874 27.1526 109.828 26.0717H112.047L112.142 28.2497H112.212C112.478 27.5032 112.901 26.9003 113.487 26.4514C114.054 26.0418 114.671 25.8442 115.331 25.8442C115.565 25.8442 115.78 25.857 115.965 25.887V28.295ZM116.351 14.5609V18.0746H114.86V9.53284H116.351V13.0097H116.375C116.557 12.7335 116.813 12.5044 117.116 12.3487C117.419 12.1794 117.771 12.0837 118.147 12.0837C119.155 12.0837 120.212 12.7455 120.212 14.6225V18.0755H118.718V14.779C118.718 13.9367 118.403 13.2868 117.578 13.2868C116.995 13.2868 116.582 13.6725 116.412 14.1171C116.364 14.2488 116.351 14.4053 116.351 14.5609ZM126.877 32.3731H119.225C119.255 33.4958 119.625 34.3509 120.336 34.9427C120.98 35.4746 121.813 35.7405 122.837 35.7405C123.972 35.7405 125.002 35.5618 125.931 35.1975L126.333 36.9556C125.25 37.4277 123.965 37.656 122.481 37.656C120.705 37.656 119.308 37.1395 118.293 36.1031C117.279 35.0658 116.766 33.6728 116.766 31.9267C116.766 30.207 117.242 28.7824 118.184 27.6383C119.18 26.4223 120.518 25.8151 122.2 25.8151C123.858 25.8151 125.107 26.4223 125.955 27.6383C126.63 28.6088 126.97 29.8034 126.97 31.2238C126.97 31.6736 126.938 32.0558 126.877 32.3731ZM74.1652 13.2381C73.5587 13.2381 72.9997 13.6716 72.8427 14.3206C72.8177 14.4292 72.7926 14.5609 72.7926 14.7063V15.6563C72.7926 15.7769 72.8056 15.8975 72.8297 16.0061C72.9876 16.6072 73.5096 17.0408 74.1523 17.0408C75.0875 17.0408 75.6577 16.3071 75.6577 15.1168C75.6577 14.0804 75.1599 13.2381 74.1652 13.2381ZM84.9121 13.0944C83.9898 13.0944 83.6016 13.9247 83.5404 14.5259H86.138C86.1492 13.9837 85.9068 13.0944 84.9121 13.0944ZM94.9429 13.1534C93.8861 13.1534 93.4616 14.1761 93.4616 15.1501C93.4616 16.2814 94.0319 17.1357 94.9308 17.1357C95.7797 17.1357 96.375 16.3173 96.375 15.1262C96.375 14.2129 95.9618 13.1534 94.9429 13.1534ZM66.2118 16.3062C66.2118 16.8834 66.5888 17.1485 67.0608 17.1485C67.6681 17.1485 68.0926 16.7637 68.2384 16.3421C68.2746 16.2344 68.2746 16.1258 68.2746 16.0172V15.2117C67.2195 15.1997 66.2118 15.4161 66.2118 16.3062ZM124.281 13.0944C123.359 13.0944 122.97 13.9247 122.91 14.5259H125.507C125.519 13.9837 125.276 13.0944 124.281 13.0944Z" fill="#B6B6B6"/>
<path d="M132.336 49H6.66362C2.98931 49 0 46.0404 0 42.4028V6.60494C0 2.96299 2.98931 0 6.66362 0H132.336C136.012 0 139.001 2.96299 139.001 6.60494V42.4028C139 46.0404 136.011 49 132.336 49ZM6.66362 1.71024C3.94003 1.71024 1.72543 3.90618 1.72543 6.60494V42.4028C1.72543 45.0972 3.94003 47.2898 6.66362 47.2898H132.336C135.059 47.2898 137.275 45.0981 137.275 42.4028V6.60494C137.275 3.90618 135.06 1.71024 132.336 1.71024H6.66362Z" fill="#B6B6B6"/>
</g>
<defs>
<clipPath id="clip0_877_1090">
<rect width="139" height="49" fill="white"/>
</clipPath>
</defs>
</svg>
