<svg width="24" height="24" viewBox="0 0 24 24" fill="none" xmlns="http://www.w3.org/2000/svg">
<g clip-path="url(#clip0_868_204)">
<path d="M16.1739 5.8175H5.47828C5.19133 5.8175 4.95654 6.05229 4.95654 6.33925C4.95654 6.62621 5.19133 6.86099 5.47828 6.86099H16.1739C16.4609 6.86099 16.6957 6.62621 16.6957 6.33925C16.6957 6.05229 16.4609 5.8175 16.1739 5.8175Z" fill="#E60028"/>
<path d="M13.5652 12.0784H5.47828C5.19133 12.0784 4.95654 12.3132 4.95654 12.6001C4.95654 12.8871 5.19133 13.1218 5.47828 13.1218H13.5652C13.8522 13.1218 14.087 12.8871 14.087 12.6001C14.087 12.3132 13.8522 12.0784 13.5652 12.0784Z" fill="#E60028"/>
<path d="M15.6522 8.94788H5.47828C5.19133 8.94788 4.95654 9.18266 4.95654 9.46961C4.95654 9.75657 5.19133 9.99135 5.47828 9.99135H15.6522C15.9392 9.99135 16.1739 9.75657 16.1739 9.46961C16.1739 9.18266 15.9392 8.94788 15.6522 8.94788Z" fill="#E60028"/>
<path d="M18.7826 8.94788H18C17.7131 8.94788 17.4783 9.18266 17.4783 9.46961C17.4783 9.75657 17.7131 9.99135 18 9.99135H18.7826C19.0696 9.99135 19.3044 9.75657 19.3044 9.46961C19.3044 9.18266 19.0696 8.94788 18.7826 8.94788Z" fill="#E60028"/>
<path d="M21.3913 0.600098H2.6087C1.17391 0.600098 0 1.77401 0 3.20879V15.7305C0 17.1653 1.17391 18.3392 2.6087 18.3392H11.0348C11.3739 18.3392 11.713 18.4436 12 18.6784L17.9478 23.2957C18.0522 23.374 18.1565 23.4001 18.2609 23.4001C18.3391 23.4001 18.4174 23.374 18.4957 23.3479C18.6783 23.2697 18.7826 23.0871 18.7826 22.8784V18.3392H21.3913C22.8261 18.3392 24 17.1653 24 15.7305V3.20879C24 1.77401 22.8261 0.600098 21.3913 0.600098ZM22.9565 15.7305C22.9565 16.5914 22.2522 17.2957 21.3913 17.2957H18.7826V15.7305C18.7826 15.4436 18.5478 15.2088 18.2609 15.2088C17.9739 15.2088 17.7391 15.4436 17.7391 15.7305V21.8088L12.6261 17.8436C12.1565 17.4784 11.6087 17.2957 11.0348 17.2957H2.6087C1.74783 17.2957 1.04348 16.5914 1.04348 15.7305V3.20879C1.04348 2.34792 1.74783 1.64358 2.6087 1.64358H21.3913C22.2522 1.64358 22.9565 2.34792 22.9565 3.20879V15.7305Z" fill="#E60028"/>
</g>
<defs>
<clipPath id="clip0_868_204">
<rect width="24" height="24" fill="white"/>
</clipPath>
</defs>
</svg>
