<svg width="24" height="24" viewBox="0 0 24 24" fill="none" xmlns="http://www.w3.org/2000/svg">
<path d="M14.7693 9.23083H14.077C13.8231 9.23083 13.6154 9.43853 13.6154 9.69237C13.6154 9.94622 13.8231 10.1539 14.077 10.1539H14.7693C15.0231 10.1539 15.2308 9.94622 15.2308 9.69237C15.2308 9.43853 15.0231 9.23083 14.7693 9.23083Z" fill="#E60028"/>
<path d="M12 9.23083H8.5385C8.28466 9.23083 8.07697 9.43853 8.07697 9.69237C8.07697 9.94622 8.28466 10.1539 8.5385 10.1539H12C12.2539 10.1539 12.4616 9.94622 12.4616 9.69237C12.4616 9.43853 12.2539 9.23083 12 9.23083Z" fill="#E60028"/>
<path d="M19.3847 6.46155H8.5385C8.28466 6.46155 8.07697 6.66924 8.07697 6.92309C8.07697 7.17694 8.28466 7.38463 8.5385 7.38463H19.3847C19.6385 7.38463 19.8462 7.17694 19.8462 6.92309C19.8462 6.66924 19.6385 6.46155 19.3847 6.46155Z" fill="#E60028"/>
<path d="M21.6923 1.84619H6C4.73077 1.84619 3.69231 2.88465 3.69231 4.15388V9.23081H1.38462C0.623077 9.23081 0 9.85388 0 10.6154V18C0 18.7616 0.623077 19.3847 1.38462 19.3847H3.69231V21.6923C3.69231 21.877 3.80769 22.0385 3.96923 22.1077C4.03846 22.1308 4.08462 22.1539 4.15385 22.1539C4.26923 22.1539 4.38462 22.1077 4.45385 22.0385L7.31538 19.5L7.33846 19.477C7.40769 19.4077 7.5 19.3847 7.63846 19.3847H10.6385C11.4 19.3847 12.0231 18.7616 12.0231 18V14.7693H12.4385C12.7846 14.7693 13.1077 14.8847 13.3615 15.1385L17.6769 19.1308C17.7692 19.2 17.8846 19.2462 18 19.2462C18.0692 19.2462 18.1154 19.2231 18.1846 19.2C18.3462 19.1308 18.4615 18.9693 18.4615 18.7847V14.7693H21.6923C22.9615 14.7693 24 13.7308 24 12.4616V4.15388C24 2.88465 22.9615 1.84619 21.6923 1.84619ZM11.1 18C11.1 18.2539 10.8923 18.4616 10.6385 18.4616H7.63846C7.26923 18.4616 6.94615 18.577 6.69231 18.8077L4.61538 20.6539V18.9231C4.61538 18.6693 4.40769 18.4616 4.15385 18.4616H1.38462C1.13077 18.4616 0.923077 18.2539 0.923077 18V10.6154C0.923077 10.3616 1.13077 10.1539 1.38462 10.1539H3.69231V12.4616C3.69231 13.7308 4.73077 14.7693 6 14.7693H11.1V18ZM23.0769 12.4616C23.0769 13.2231 22.4538 13.8462 21.6923 13.8462H18.4615V12.4616C18.4615 12.2077 18.2538 12 18 12C17.7462 12 17.5385 12.2077 17.5385 12.4616V17.7231L14.0077 14.4462C13.5923 14.0539 13.0385 13.8462 12.4385 13.8462H6C5.23846 13.8462 4.61538 13.2231 4.61538 12.4616V4.15388C4.61538 3.39235 5.23846 2.76927 6 2.76927H21.6923C22.4538 2.76927 23.0769 3.39235 23.0769 4.15388V12.4616Z" fill="#E60028"/>
</svg>
