<svg width="16" height="16" viewBox="0 0 16 16" fill="none" xmlns="http://www.w3.org/2000/svg">
<g clip-path="url(#clip0_868_95)">
<path d="M5.88057 3.09965C5.88057 3.50286 5.88057 5.30253 5.88057 5.30253H4.26666V7.99621H5.88057V16.0009H9.19587V7.99644H11.4206C11.4206 7.99644 11.6289 6.70484 11.7299 5.2926C11.4404 5.2926 9.2084 5.2926 9.2084 5.2926C9.2084 5.2926 9.2084 3.7255 9.2084 3.45082C9.2084 3.17554 9.56987 2.80526 9.92714 2.80526C10.2837 2.80526 11.0364 2.80526 11.7334 2.80526C11.7334 2.43851 11.7334 1.17131 11.7334 0.000976572C10.8029 0.000976572 9.74415 0.000976572 9.27748 0.000976572C5.79862 0.000790575 5.88057 2.69715 5.88057 3.09965Z" fill="white"/>
</g>
<defs>
<clipPath id="clip0_868_95">
<rect width="16" height="16" fill="white"/>
</clipPath>
</defs>
</svg>
