<svg width="32" height="32" viewBox="0 0 32 32" fill="none" xmlns="http://www.w3.org/2000/svg">
<g clip-path="url(#clip0_877_1140)">
<path d="M14.4106 11.7122C14.4106 12.065 14.4106 13.6397 14.4106 13.6397H13.2002V15.9967H14.4106V23.0008H16.8971V15.9969H18.5656C18.5656 15.9969 18.7219 14.8667 18.7977 13.631C18.5805 13.631 16.9065 13.631 16.9065 13.631C16.9065 13.631 16.9065 12.2598 16.9065 12.0195C16.9065 11.7786 17.1776 11.4546 17.4456 11.4546C17.713 11.4546 18.2775 11.4546 18.8003 11.4546C18.8003 11.1337 18.8003 10.0249 18.8003 9.00085C18.1023 9.00085 17.3083 9.00085 16.9583 9.00085C14.3492 9.00069 14.4106 11.36 14.4106 11.7122Z" fill="#B6B6B6"/>
</g>
<circle cx="16" cy="16" r="15.5" stroke="#B6B6B6"/>
<defs>
<clipPath id="clip0_877_1140">
<rect width="12" height="14" fill="white" transform="translate(10 9)"/>
</clipPath>
</defs>
</svg>
