<svg width="139" height="47" viewBox="0 0 139 47" fill="none" xmlns="http://www.w3.org/2000/svg">
<g clip-path="url(#clip0_868_237)">
<path d="M132.115 47H6.8862C3.08891 47 0 43.8821 0 40.0492V6.95083C0 3.1179 3.08891 0 6.8862 0H132.115C135.912 0 139.001 3.1179 139.001 6.95083V40.0492C139 43.8821 135.911 47 132.115 47ZM6.8862 1.64186C3.98598 1.64186 1.6266 4.02339 1.6266 6.95083V40.0492C1.6266 42.9766 3.98598 45.3581 6.8862 45.3581H132.115C135.015 45.3581 137.374 42.9766 137.374 40.0492V6.95083C137.374 4.02339 135.016 1.64186 132.115 1.64186H6.8862Z" fill="#B6B6B6"/>
<path d="M46.1904 14.7186H45.2673C45.2673 14.5905 45.1795 14.2276 45.0047 13.6292H43.6717C43.4911 14.2178 43.4008 14.5806 43.4008 14.7186H42.5322C42.5322 14.643 42.7567 14.0216 43.2056 12.855C43.6546 11.6885 43.879 11.0457 43.879 10.9275H44.9697C44.9697 11.0383 45.173 11.6713 45.5797 12.8279C45.9871 13.983 46.1904 14.6135 46.1904 14.7186ZM44.8583 13.0734C44.5297 12.0719 44.3646 11.5301 44.3646 11.4488H44.3182C44.3182 11.5243 44.1482 12.0661 43.8075 13.0734H44.8583Z" fill="#B6B6B6"/>
<path d="M49.9113 14.7186H49.1988C49.1988 14.6389 48.9345 14.2186 48.4051 13.4576C47.8512 12.6556 47.5356 12.1072 47.4584 11.8125H47.412C47.46 12.2377 47.4844 12.6219 47.4844 12.9659C47.4844 13.4453 47.4974 14.0298 47.5251 14.7194H46.8151C46.8435 14.1176 46.8582 13.4568 46.8582 12.736C46.8582 12.0275 46.8435 11.4242 46.8151 10.9275H47.6723C47.6723 11.0301 47.9098 11.4414 48.3847 12.1589C48.8906 12.9215 49.181 13.4395 49.2558 13.7113H49.2989C49.2525 13.2786 49.2297 12.8903 49.2297 12.5464C49.2297 12.0202 49.2159 11.4808 49.1891 10.9275H49.9105C49.8836 11.4094 49.8698 12.0119 49.8698 12.736C49.8706 13.465 49.8836 14.1267 49.9113 14.7186Z" fill="#B6B6B6"/>
<path d="M54.0924 12.6918C54.0924 13.2434 53.9176 13.7245 53.567 14.1358C53.2165 14.5479 52.7261 14.7531 52.0958 14.7531C51.8111 14.7531 51.4191 14.7416 50.9189 14.7186C50.9442 14.1325 50.9564 13.4716 50.9564 12.7353C50.9564 12.0284 50.9442 11.4259 50.9189 10.9268H51.424C51.507 10.9268 51.6298 10.9235 51.7932 10.9177C51.9567 10.912 52.0633 10.9087 52.1137 10.9087C52.8082 10.9087 53.3117 11.0835 53.624 11.4333C53.9363 11.783 54.0924 12.2025 54.0924 12.6918ZM53.3052 12.8174C53.3052 12.4447 53.1978 12.1302 52.9823 11.8749C52.7668 11.6196 52.4382 11.4924 51.9958 11.4924C51.9128 11.4924 51.7997 11.5014 51.655 11.5186C51.6737 11.9069 51.6834 12.3125 51.6834 12.7361C51.6834 13.1999 51.6932 13.6605 51.7119 14.1161C51.8372 14.1415 51.9616 14.1538 52.0868 14.1538C52.5 14.1538 52.8066 14.0241 53.0059 13.7647C53.2059 13.5061 53.3052 13.1901 53.3052 12.8174Z" fill="#B6B6B6"/>
<path d="M57.9483 14.7186H57.0943C56.8715 14.0315 56.6999 13.6071 56.5803 13.4462C56.4608 13.2853 56.2688 13.2048 56.0029 13.2048C55.8915 13.2048 55.7849 13.2057 55.6824 13.2073C55.6824 13.7064 55.6914 14.2105 55.7085 14.7186H54.9066C54.9318 14.1325 54.944 13.4716 54.944 12.7353C54.944 12.0284 54.931 11.4259 54.9066 10.9268H55.4059C55.4637 10.9268 55.584 10.9235 55.7678 10.9177C55.9516 10.912 56.1216 10.9087 56.277 10.9087C57.1602 10.9087 57.601 11.2133 57.601 11.8232C57.601 12.3067 57.3489 12.6433 56.8455 12.8338V12.8773C57.0398 12.9315 57.2098 13.0842 57.3562 13.3362C57.5034 13.5882 57.7002 14.0488 57.9483 14.7186ZM56.8666 12.0391C56.8666 11.6533 56.6202 11.4595 56.1281 11.4595C55.9476 11.4595 55.7874 11.4735 55.6491 11.5006C55.6702 11.8019 55.6808 12.1935 55.6808 12.677C55.7865 12.6811 55.876 12.6827 55.9492 12.6827C56.5608 12.6827 56.8666 12.4685 56.8666 12.0391Z" fill="#B6B6B6"/>
<path d="M62.0847 12.7525C62.0847 13.3485 61.9042 13.8427 61.5423 14.2351C61.1804 14.6275 60.733 14.8237 60.2003 14.8237C59.6928 14.8237 59.2675 14.6439 58.9251 14.2835C58.5827 13.9231 58.4111 13.4658 58.4111 12.9101C58.4111 12.3141 58.5916 11.8199 58.9535 11.4275C59.3146 11.0351 59.762 10.8389 60.2947 10.8389C60.8022 10.8389 61.2275 11.0187 61.5699 11.3774C61.9131 11.7378 62.0847 12.1959 62.0847 12.7525ZM61.2877 12.837C61.2877 12.4315 61.1844 12.1023 60.9787 11.8494C60.7729 11.5974 60.5191 11.471 60.2166 11.471C59.936 11.471 59.6977 11.5982 59.5009 11.8527C59.3049 12.1072 59.2065 12.4282 59.2065 12.8165C59.2065 13.2204 59.3098 13.5488 59.5163 13.8024C59.7229 14.0561 59.9767 14.1825 60.2768 14.1825C60.5574 14.1825 60.7965 14.0553 60.9925 13.7991C61.1901 13.5447 61.2877 13.2237 61.2877 12.837Z" fill="#B6B6B6"/>
<path d="M63.7154 14.7186H62.8989C62.9241 14.1169 62.9363 13.456 62.9363 12.7353C62.9363 12.0268 62.9233 11.4234 62.8989 10.9268H63.7154C63.6902 11.416 63.678 12.0186 63.678 12.7353C63.678 13.4675 63.691 14.1284 63.7154 14.7186Z" fill="#B6B6B6"/>
<path d="M67.8974 12.6918C67.8974 13.2434 67.7225 13.7245 67.372 14.1358C67.0214 14.5479 66.531 14.7531 65.9007 14.7531C65.6161 14.7531 65.2232 14.7416 64.7239 14.7186C64.7491 14.1325 64.7613 13.4716 64.7613 12.7353C64.7613 12.0284 64.7491 11.4259 64.7239 10.9268H65.2289C65.3119 10.9268 65.4347 10.9235 65.5982 10.9177C65.7616 10.912 65.8682 10.9087 65.9186 10.9087C66.6132 10.9087 67.1166 11.0835 67.4289 11.4333C67.7412 11.783 67.8974 12.2025 67.8974 12.6918ZM67.1101 12.8174C67.1101 12.4447 67.0027 12.1302 66.7872 11.8749C66.5717 11.6196 66.2431 11.4924 65.8007 11.4924C65.7177 11.4924 65.6047 11.5014 65.4599 11.5186C65.4794 11.9069 65.4884 12.3125 65.4884 12.7361C65.4884 13.1999 65.4981 13.6605 65.5168 14.1161C65.6421 14.1415 65.7665 14.1538 65.8918 14.1538C66.3049 14.1538 66.6115 14.0241 66.8108 13.7647C67.0101 13.5061 67.1101 13.1901 67.1101 12.8174Z" fill="#B6B6B6"/>
<path d="M73.4457 14.7186H72.5218C72.5218 14.5905 72.434 14.2276 72.2591 13.6292H70.9261C70.7456 14.2178 70.6553 14.5806 70.6553 14.7186H69.7867C69.7867 14.643 70.0112 14.0216 70.4601 12.855C70.909 11.6885 71.1335 11.0457 71.1335 10.9275H72.2241C72.2241 11.0383 72.4275 11.6713 72.8341 12.8279C73.2416 13.983 73.4457 14.6135 73.4457 14.7186ZM72.1127 13.0734C71.7841 12.0719 71.619 11.5301 71.619 11.4488H71.5727C71.5727 11.5243 71.4027 12.0661 71.0619 13.0734H72.1127Z" fill="#B6B6B6"/>
<path d="M76.8103 11.9201C76.8103 12.3839 76.6395 12.7271 76.2979 12.9479C75.9563 13.1695 75.5375 13.2795 75.0414 13.2795C74.9511 13.2795 74.8868 13.2779 74.8478 13.2738C74.8478 13.6391 74.8584 14.1202 74.8795 14.7186H74.0687C74.0939 14.1579 74.1061 13.4963 74.1061 12.7353C74.1061 12.0367 74.0931 11.4333 74.0687 10.9268H74.5705C74.6412 10.9268 74.7779 10.9235 74.9804 10.9177C75.1829 10.912 75.3577 10.9087 75.5058 10.9087C75.8709 10.9087 76.18 10.9924 76.4321 11.1591C76.685 11.3274 76.8103 11.5802 76.8103 11.9201ZM76.0661 12.0802C76.0661 11.6648 75.7929 11.4571 75.2471 11.4571C75.1105 11.4571 74.9665 11.4719 74.8145 11.5006C74.8356 11.8675 74.8462 12.2829 74.8462 12.7468C74.8942 12.7509 74.9503 12.7525 75.0137 12.7525C75.7156 12.7525 76.0661 12.5284 76.0661 12.0802Z" fill="#B6B6B6"/>
<path d="M80.2709 11.9201C80.2709 12.3839 80.1001 12.7271 79.7585 12.9479C79.417 13.1695 78.9981 13.2795 78.502 13.2795C78.4117 13.2795 78.3475 13.2779 78.3084 13.2738C78.3084 13.6391 78.319 14.1202 78.3402 14.7186H77.5293C77.5545 14.1579 77.5667 13.4963 77.5667 12.7353C77.5667 12.0367 77.5537 11.4333 77.5293 10.9268H78.0311C78.1019 10.9268 78.2385 10.9235 78.441 10.9177C78.6435 10.912 78.8184 10.9087 78.9664 10.9087C79.3316 10.9087 79.6406 10.9924 79.8927 11.1591C80.1449 11.3274 80.2709 11.5802 80.2709 11.9201ZM79.5268 12.0802C79.5268 11.6648 79.2535 11.4571 78.7078 11.4571C78.5711 11.4571 78.4272 11.4719 78.2751 11.5006C78.2962 11.8675 78.3068 12.2829 78.3068 12.7468C78.3548 12.7509 78.4109 12.7525 78.4743 12.7525C79.1754 12.7525 79.5268 12.5284 79.5268 12.0802Z" fill="#B6B6B6"/>
<path d="M85.9282 12.7525C85.9282 13.3485 85.7477 13.8427 85.3858 14.2351C85.0238 14.6275 84.5773 14.8237 84.0446 14.8237C83.5371 14.8237 83.1118 14.6439 82.7694 14.2835C82.427 13.9231 82.2554 13.4658 82.2554 12.9101C82.2554 12.3141 82.4359 11.8199 82.7978 11.4275C83.1598 11.0351 83.6071 10.8389 84.139 10.8389C84.6465 10.8389 85.0718 11.0187 85.4142 11.3774C85.7574 11.7378 85.9282 12.1959 85.9282 12.7525ZM85.132 12.837C85.132 12.4315 85.0295 12.1023 84.823 11.8494C84.6172 11.5974 84.3634 11.471 84.0609 11.471C83.7803 11.471 83.5412 11.5982 83.3452 11.8527C83.1492 12.1072 83.0508 12.4282 83.0508 12.8165C83.0508 13.2204 83.1541 13.5488 83.3615 13.8024C83.568 14.0561 83.8218 14.1825 84.1219 14.1825C84.4025 14.1825 84.6416 14.0553 84.8376 13.7991C85.0344 13.5447 85.132 13.2237 85.132 12.837Z" fill="#B6B6B6"/>
<path d="M89.8393 14.7186H89.1269C89.1269 14.6389 88.8626 14.2186 88.3331 13.4576C87.7792 12.6556 87.4637 12.1072 87.3864 11.8125H87.3401C87.3881 12.2377 87.4124 12.6219 87.4124 12.9659C87.4124 13.4453 87.4255 14.0298 87.4531 14.7194H86.7431C86.7716 14.1176 86.7862 13.4568 86.7862 12.736C86.7862 12.0275 86.7716 11.4242 86.7431 10.9275H87.6003C87.6003 11.0301 87.8378 11.4414 88.3128 12.1589C88.8186 12.9215 89.109 13.4395 89.1838 13.7113H89.2269C89.1806 13.2786 89.1578 12.8903 89.1578 12.5464C89.1578 12.0202 89.1448 11.4808 89.1171 10.9275H89.8385C89.8117 11.4094 89.7979 12.0119 89.7979 12.736C89.7987 13.465 89.8125 14.1267 89.8393 14.7186Z" fill="#B6B6B6"/>
<path d="M55.8029 26.8666C55.8029 28.7482 55.2498 30.2481 54.1437 31.3645C52.888 32.6944 51.2533 33.3602 49.2404 33.3602C47.3136 33.3602 45.6757 32.6862 44.328 31.3366C42.9788 29.9878 42.3054 28.3156 42.3054 26.3215C42.3054 24.3275 42.9788 22.6553 44.328 21.3065C45.6757 19.9577 47.3136 19.2837 49.2404 19.2837C50.1976 19.2837 51.1109 19.4717 51.9812 19.8485C52.8506 20.2245 53.5476 20.7269 54.0689 21.3541L52.8945 22.5395C52.0121 21.4731 50.7938 20.9395 49.2404 20.9395C47.835 20.9395 46.6207 21.4378 45.596 22.4361C44.5704 23.4335 44.0572 24.7289 44.0572 26.3215C44.0572 27.915 44.5704 29.2104 45.596 30.2078C46.6215 31.2053 47.8358 31.7036 49.2404 31.7036C50.7319 31.7036 51.9747 31.202 52.9693 30.198C53.6159 29.5453 53.9884 28.6358 54.0876 27.4692H49.2404V25.8503H55.7101C55.772 26.2025 55.8029 26.5407 55.8029 26.8666Z" fill="#B6B6B6"/>
<path d="M57.8353 24.9383C58.7177 24.0032 59.8425 23.5361 61.2097 23.5361C62.5768 23.5361 63.7008 24.0032 64.584 24.9383C65.4665 25.8733 65.9073 27.0432 65.9073 28.4478C65.9073 29.8532 65.4665 31.023 64.584 31.9573C63.7008 32.8923 62.576 33.3594 61.2097 33.3594C59.8417 33.3594 58.7177 32.8923 57.8353 31.9573C56.9528 31.0222 56.5112 29.8532 56.5112 28.4478C56.5112 27.0423 56.9528 25.8725 57.8353 24.9383ZM59.113 30.8654C59.7034 31.4737 60.402 31.7783 61.2105 31.7783C62.0181 31.7783 62.7175 31.4737 63.308 30.8654C63.8984 30.2571 64.1936 29.4509 64.1936 28.4478C64.1936 27.4438 63.8984 26.6384 63.308 26.0293C62.7167 25.421 62.0181 25.1172 61.2105 25.1172C60.402 25.1172 59.7026 25.421 59.113 26.0293C58.5217 26.6384 58.2273 27.4446 58.2273 28.4478C58.2273 29.4518 58.5217 30.2571 59.113 30.8654Z" fill="#B6B6B6"/>
<path d="M67.8104 24.9383C68.6928 24.0032 69.8176 23.5361 71.1848 23.5361C72.5519 23.5361 73.6767 24.0032 74.5591 24.9383C75.4416 25.8733 75.8824 27.0432 75.8824 28.4478C75.8824 29.8532 75.4416 31.023 74.5591 31.9573C73.6759 32.8923 72.5511 33.3594 71.1848 33.3594C69.8168 33.3594 68.6928 32.8923 67.8104 31.9573C66.9279 31.0222 66.4863 29.8532 66.4863 28.4478C66.4863 27.0423 66.9279 25.8725 67.8104 24.9383ZM69.0873 30.8654C69.6777 31.4737 70.3763 31.7783 71.1848 31.7783C71.9924 31.7783 72.6918 31.4737 73.2822 30.8654C73.8727 30.2571 74.1679 29.4509 74.1679 28.4478C74.1679 27.4438 73.8727 26.6384 73.2822 26.0293C72.691 25.421 71.9924 25.1172 71.1848 25.1172C70.3763 25.1172 69.6777 25.421 69.0873 26.0293C68.496 26.6384 68.2016 27.4446 68.2016 28.4478C68.2016 29.4518 68.4968 30.2571 69.0873 30.8654Z" fill="#B6B6B6"/>
<path d="M80.9549 37.4246C79.8733 37.4246 78.9908 37.1521 78.3068 36.6062C77.6229 36.0602 77.1324 35.4355 76.834 34.7336L78.4004 34.0752C78.5744 34.576 78.894 34.9971 79.3609 35.3354C79.8261 35.6744 80.3572 35.8435 80.9549 35.8435C81.8992 35.8435 82.6417 35.5578 83.1826 34.9873C83.7234 34.4167 83.9934 33.6418 83.9934 32.6632V31.7791H83.9186C83.6201 32.2306 83.1972 32.6074 82.6507 32.9079C82.1033 33.2091 81.4876 33.3602 80.8045 33.3602C79.6236 33.3602 78.6045 32.8898 77.7465 31.9482C76.8884 31.0074 76.4598 29.8409 76.4598 28.4477C76.4598 27.0546 76.8884 25.8881 77.7465 24.9465C78.6045 24.0057 79.6236 23.5353 80.8045 23.5353C81.4876 23.5353 82.1033 23.6863 82.6507 23.9868C83.1972 24.2881 83.6193 24.6641 83.9186 25.1164H83.9934V23.8357H85.6347V32.5869C85.6347 34.168 85.18 35.369 84.2732 36.1916C83.3664 37.0133 82.2603 37.4246 80.9549 37.4246ZM81.0851 31.7791C81.8927 31.7791 82.5799 31.4778 83.1452 30.8752C83.7104 30.2735 83.9934 29.4632 83.9934 28.4477C83.9934 27.4314 83.7104 26.622 83.1452 26.0202C82.5799 25.4177 81.8927 25.1164 81.0851 25.1164C80.2888 25.1164 79.6057 25.4201 79.0347 26.0284C78.463 26.6376 78.1767 27.4437 78.1767 28.4469C78.1767 29.4509 78.463 30.2563 79.0347 30.8646C79.6057 31.4737 80.2897 31.7791 81.0851 31.7791Z" fill="#B6B6B6"/>
<path d="M88.9716 33.0581H87.2572V19.5834H88.9716V33.0581Z" fill="#B6B6B6"/>
<path d="M94.6387 33.3594C93.2593 33.3594 92.137 32.8955 91.2733 31.9662C90.4087 31.0386 89.9769 29.8647 89.9769 28.4477C89.9769 27.1047 90.3965 25.9513 91.2359 24.9842C92.0744 24.0188 93.1471 23.5353 94.4516 23.5353C95.8066 23.5353 96.8907 23.981 97.7048 24.8718C98.5189 25.7625 98.9264 26.9545 98.9264 28.4477L98.9085 28.7679H91.6929C91.7425 29.6964 92.05 30.4303 92.616 30.9696C93.1813 31.509 93.8433 31.7791 94.6013 31.7791C95.8318 31.7791 96.6646 31.252 97.0997 30.198L98.6279 30.8375C98.3302 31.5525 97.8382 32.1526 97.155 32.6345C96.4719 33.118 95.6334 33.3594 94.6387 33.3594ZM97.1005 27.3378C97.0631 26.81 96.8232 26.3092 96.3824 25.8322C95.9408 25.3553 95.2844 25.1172 94.415 25.1172C93.7815 25.1172 93.2317 25.3175 92.7657 25.719C92.2996 26.1204 91.9792 26.6597 91.8052 27.3378H97.1005Z" fill="#B6B6B6"/>
<path d="M105.677 33.0581H103.961V19.5834H108.511C109.642 19.5834 110.621 19.9635 111.447 20.722C112.274 21.4822 112.687 22.4386 112.687 23.592C112.687 24.7462 112.273 25.7034 111.447 26.462C110.62 27.2213 109.642 27.6006 108.511 27.6006H105.678V33.0581H105.677ZM105.677 25.9448H108.548C109.268 25.9448 109.847 25.6993 110.282 25.21C110.717 24.7208 110.935 24.1814 110.935 23.5912C110.935 23.0017 110.718 22.4624 110.282 21.9731C109.847 21.483 109.268 21.2384 108.548 21.2384H105.677V25.9448Z" fill="#B6B6B6"/>
<path d="M115.52 33.0581H113.806V19.5834H115.52V33.0581Z" fill="#B6B6B6"/>
<path d="M119.939 33.3594C118.969 33.3594 118.158 33.0762 117.506 32.5122C116.853 31.9474 116.527 31.2012 116.527 30.2727C116.527 29.2687 116.912 28.4815 117.683 27.9109C118.454 27.3404 119.404 27.0547 120.536 27.0547C121.543 27.0547 122.37 27.2419 123.015 27.6195V27.356C123.015 26.6787 122.786 26.1361 122.326 25.7289C121.866 25.3209 121.3 25.1173 120.629 25.1173C120.132 25.1173 119.681 25.2371 119.278 25.4752C118.873 25.7133 118.597 26.04 118.447 26.4529L116.881 25.7757C117.092 25.224 117.508 24.7126 118.13 24.2422C118.751 23.7718 119.572 23.537 120.591 23.537C121.76 23.537 122.728 23.8826 123.499 24.5722C124.27 25.2626 124.655 26.2346 124.655 27.4898V33.0598H123.014V31.78H122.94C122.257 32.8324 121.256 33.3594 119.939 33.3594ZM120.218 31.7791C120.926 31.7791 121.569 31.5123 122.148 30.9787C122.726 30.446 123.015 29.8155 123.015 29.0873C122.53 28.6859 121.804 28.4856 120.833 28.4856C120.001 28.4856 119.373 28.6678 118.951 29.0307C118.528 29.3952 118.317 29.8212 118.317 30.3105C118.317 30.762 118.509 31.1191 118.895 31.3835C119.279 31.647 119.721 31.7791 120.218 31.7791Z" fill="#B6B6B6"/>
<path d="M128.385 37.1226H126.613L128.739 32.4745L124.972 23.8358H126.836L129.559 30.4607H129.597L132.244 23.8358H134.108L128.385 37.1226Z" fill="#B6B6B6"/>
<path d="M10.311 25.0926C10.311 20.7884 10.3126 16.4851 10.3094 12.181C10.3086 11.6531 10.411 11.1704 10.7811 10.7714C10.925 10.6163 11.0291 10.5752 11.2056 10.7567C14.075 13.712 16.9508 16.66 19.8258 19.6088C21.6874 21.5183 23.5491 23.4294 25.4188 25.3307C25.6002 25.5145 25.6157 25.6122 25.4237 25.8052C20.8514 30.3942 16.2822 34.9881 11.7253 39.5935C11.4472 39.8751 11.2512 39.8447 10.9844 39.6379C10.4964 39.2586 10.3094 38.7513 10.3094 38.1462C10.3102 35.5972 10.3053 33.0482 10.3045 30.4984C10.3037 28.6965 10.3045 26.8937 10.3045 25.0918C10.3061 25.0926 10.3086 25.0926 10.311 25.0926Z" fill="#B6B6B6"/>
<path d="M11.9506 10.2797C12.2995 10.2765 12.5451 10.3791 12.7826 10.5129C18.6221 13.8155 24.4608 17.1206 30.3043 20.4158C30.5727 20.5668 30.567 20.6522 30.3596 20.8574C29.0535 22.1545 27.7579 23.4623 26.4631 24.7708C26.3232 24.912 26.2386 24.9933 26.0508 24.8004C21.4052 20.0176 16.7515 15.2423 12.1003 10.4644C12.0612 10.4259 12.0295 10.3783 11.9506 10.2797Z" fill="#B6B6B6"/>
<path d="M13.2568 39.4843C17.4957 35.1597 21.737 30.8383 25.9662 26.5038C26.2289 26.2345 26.3509 26.2706 26.5859 26.5177C27.6603 27.6465 28.7501 28.7605 29.8456 29.8688C30.0384 30.0633 30.0546 30.1438 29.7928 30.2883C24.351 33.2945 18.9149 36.3098 13.4772 39.3226C13.3869 39.3727 13.3039 39.454 13.2568 39.4843Z" fill="#B6B6B6"/>
<path d="M37.4719 25.2125C37.4532 25.6977 37.2271 26.0384 36.8839 26.2937C36.6302 26.4825 36.3496 26.6385 36.073 26.7928C34.4277 27.7106 32.7784 28.6202 31.1363 29.5446C30.9151 29.6694 30.7834 29.6636 30.5995 29.4724C29.4308 28.2541 28.2516 27.0457 27.0666 25.8438C26.8942 25.669 26.8893 25.5729 27.0666 25.3972C28.4476 24.0238 29.8212 22.643 31.1892 21.2556C31.3502 21.0923 31.4657 21.0734 31.6674 21.1883C33.2924 22.1176 34.9247 23.0346 36.5545 23.9565C37.0579 24.2405 37.45 24.61 37.4719 25.2125Z" fill="#B6B6B6"/>
</g>
<defs>
<clipPath id="clip0_868_237">
<rect width="139" height="47" fill="white"/>
</clipPath>
</defs>
</svg>
