<svg width="16" height="14" viewBox="0 0 16 14" fill="none" xmlns="http://www.w3.org/2000/svg">
<path d="M16 1.65642C15.4111 1.93751 14.7792 2.12814 14.1153 2.21324C14.7932 1.77597 15.3121 1.08239 15.5581 0.258473C14.9222 0.663419 14.2203 0.957461 13.4724 1.11686C12.8736 0.428658 12.0217 0 11.0769 0C9.26422 0 7.7945 1.5832 7.7945 3.53473C7.7945 3.81151 7.82349 4.08184 7.87949 4.34034C5.15201 4.19277 2.73347 2.78514 1.11477 0.646183C0.831818 1.16747 0.670851 1.77487 0.670851 2.42325C0.670851 3.64997 1.25075 4.73236 2.13059 5.36562C1.59268 5.34624 1.08677 5.18684 0.64387 4.92189V4.96605C0.64387 6.67849 1.77566 8.10766 3.27637 8.43294C3.00142 8.51264 2.71148 8.5568 2.41153 8.5568C2.19959 8.5568 1.99462 8.53418 1.79365 8.49109C2.21156 9.89659 3.42335 10.9187 4.85909 10.9467C3.73629 11.8944 2.32055 12.4577 0.782851 12.4577C0.517909 12.4577 0.256942 12.4405 0 12.4093C1.45273 13.4141 3.17742 14 5.03107 14C11.0689 14 14.3693 8.61281 14.3693 3.94077L14.3583 3.48305C15.0032 2.98759 15.5611 2.3651 16 1.65642Z" fill="white"/>
</svg>
