<svg width="139" height="47" viewBox="0 0 139 47" fill="none" xmlns="http://www.w3.org/2000/svg">
<g clip-path="url(#clip0_877_1097)">
<path d="M132.115 47H6.8862C3.08891 47 0 43.8821 0 40.0492V6.95083C0 3.1179 3.08891 0 6.8862 0H132.115C135.912 0 139.001 3.1179 139.001 6.95083V40.0492C139 43.8821 135.911 47 132.115 47ZM6.8862 1.64186C3.98598 1.64186 1.6266 4.02339 1.6266 6.95083V40.0492C1.6266 42.9766 3.98598 45.3581 6.8862 45.3581H132.115C135.015 45.3581 137.374 42.9766 137.374 40.0492V6.95083C137.374 4.02339 135.016 1.64186 132.115 1.64186H6.8862Z" fill="#B6B6B6"/>
<path d="M46.1904 14.7186H45.2673C45.2673 14.5905 45.1795 14.2276 45.0047 13.6292H43.6717C43.4911 14.2178 43.4008 14.5806 43.4008 14.7186H42.5322C42.5322 14.643 42.7567 14.0216 43.2056 12.855C43.6546 11.6885 43.879 11.0457 43.879 10.9275H44.9697C44.9697 11.0383 45.173 11.6713 45.5797 12.8279C45.9871 13.983 46.1904 14.6135 46.1904 14.7186ZM44.8583 13.0734C44.5297 12.0719 44.3646 11.5301 44.3646 11.4488H44.3182C44.3182 11.5243 44.1482 12.0661 43.8075 13.0734H44.8583Z" fill="#B6B6B6"/>
<path d="M49.9112 14.7186H49.1987C49.1987 14.6389 48.9344 14.2186 48.4049 13.4576C47.8511 12.6556 47.5355 12.1072 47.4583 11.8125H47.4119C47.4599 12.2377 47.4843 12.6219 47.4843 12.9659C47.4843 13.4453 47.4973 14.0298 47.525 14.7194H46.8149C46.8434 14.1176 46.858 13.4568 46.858 12.736C46.858 12.0275 46.8434 11.4242 46.8149 10.9275H47.6722C47.6722 11.0301 47.9096 11.4414 48.3846 12.1589C48.8905 12.9215 49.1808 13.4395 49.2557 13.7113H49.2988C49.2524 13.2786 49.2296 12.8903 49.2296 12.5464C49.2296 12.0202 49.2158 11.4808 49.189 10.9275H49.9104C49.8835 11.4094 49.8697 12.0119 49.8697 12.736C49.8705 13.465 49.8835 14.1267 49.9112 14.7186Z" fill="#B6B6B6"/>
<path d="M54.0924 12.6918C54.0924 13.2434 53.9176 13.7245 53.567 14.1358C53.2165 14.5479 52.7261 14.7531 52.0958 14.7531C51.8111 14.7531 51.4191 14.7416 50.9189 14.7186C50.9442 14.1325 50.9564 13.4716 50.9564 12.7353C50.9564 12.0284 50.9442 11.4259 50.9189 10.9268H51.424C51.507 10.9268 51.6298 10.9235 51.7932 10.9177C51.9567 10.912 52.0633 10.9087 52.1137 10.9087C52.8082 10.9087 53.3117 11.0835 53.624 11.4333C53.9363 11.783 54.0924 12.2025 54.0924 12.6918ZM53.3052 12.8174C53.3052 12.4447 53.1978 12.1302 52.9823 11.8749C52.7668 11.6196 52.4382 11.4924 51.9958 11.4924C51.9128 11.4924 51.7997 11.5014 51.655 11.5186C51.6737 11.9069 51.6834 12.3125 51.6834 12.7361C51.6834 13.1999 51.6932 13.6605 51.7119 14.1161C51.8372 14.1415 51.9616 14.1538 52.0868 14.1538C52.5 14.1538 52.8066 14.0241 53.0059 13.7647C53.2059 13.5061 53.3052 13.1901 53.3052 12.8174Z" fill="#B6B6B6"/>
<path d="M57.9485 14.7186H57.0945C56.8717 14.0315 56.7001 13.6071 56.5805 13.4462C56.461 13.2853 56.269 13.2048 56.0031 13.2048C55.8916 13.2048 55.7851 13.2057 55.6826 13.2073C55.6826 13.7064 55.6916 14.2105 55.7087 14.7186H54.9067C54.932 14.1325 54.9441 13.4716 54.9441 12.7353C54.9441 12.0284 54.9311 11.4259 54.9067 10.9268H55.4061C55.4638 10.9268 55.5842 10.9235 55.768 10.9177C55.9518 10.912 56.1218 10.9087 56.2771 10.9087C57.1604 10.9087 57.6012 11.2133 57.6012 11.8232C57.6012 12.3067 57.3491 12.6433 56.8456 12.8338V12.8773C57.04 12.9315 57.21 13.0842 57.3564 13.3362C57.5036 13.5882 57.7004 14.0488 57.9485 14.7186ZM56.8668 12.0391C56.8668 11.6533 56.6204 11.4595 56.1283 11.4595C55.9478 11.4595 55.7875 11.4735 55.6493 11.5006C55.6704 11.8019 55.681 12.1935 55.681 12.677C55.7867 12.6811 55.8762 12.6827 55.9494 12.6827C56.561 12.6827 56.8668 12.4685 56.8668 12.0391Z" fill="#B6B6B6"/>
<path d="M62.0848 12.7525C62.0848 13.3485 61.9042 13.8427 61.5423 14.2351C61.1804 14.6275 60.7331 14.8237 60.2004 14.8237C59.6929 14.8237 59.2675 14.6439 58.9251 14.2835C58.5827 13.9231 58.4111 13.4658 58.4111 12.9101C58.4111 12.3141 58.5917 11.8199 58.9536 11.4275C59.3147 11.0351 59.762 10.8389 60.2947 10.8389C60.8022 10.8389 61.2276 11.0187 61.57 11.3774C61.9132 11.7378 62.0848 12.1959 62.0848 12.7525ZM61.2878 12.837C61.2878 12.4315 61.1845 12.1023 60.9787 11.8494C60.7729 11.5974 60.5192 11.471 60.2167 11.471C59.9361 11.471 59.6978 11.5982 59.501 11.8527C59.305 12.1072 59.2065 12.4282 59.2065 12.8165C59.2065 13.2204 59.3098 13.5488 59.5164 13.8024C59.723 14.0561 59.9767 14.1825 60.2768 14.1825C60.5574 14.1825 60.7965 14.0553 60.9925 13.7991C61.1902 13.5447 61.2878 13.2237 61.2878 12.837Z" fill="#B6B6B6"/>
<path d="M63.7155 14.7186H62.8989C62.9241 14.1169 62.9363 13.456 62.9363 12.7353C62.9363 12.0268 62.9233 11.4234 62.8989 10.9268H63.7155C63.6903 11.416 63.6781 12.0186 63.6781 12.7353C63.6781 13.4675 63.6911 14.1284 63.7155 14.7186Z" fill="#B6B6B6"/>
<path d="M67.8976 12.6918C67.8976 13.2434 67.7228 13.7245 67.3722 14.1358C67.0217 14.5479 66.5313 14.7531 65.901 14.7531C65.6163 14.7531 65.2235 14.7416 64.7241 14.7186C64.7493 14.1325 64.7615 13.4716 64.7615 12.7353C64.7615 12.0284 64.7493 11.4259 64.7241 10.9268H65.2292C65.3121 10.9268 65.4349 10.9235 65.5984 10.9177C65.7619 10.912 65.8684 10.9087 65.9189 10.9087C66.6134 10.9087 67.1168 11.0835 67.4292 11.4333C67.7415 11.783 67.8976 12.2025 67.8976 12.6918ZM67.1103 12.8174C67.1103 12.4447 67.003 12.1302 66.7875 11.8749C66.5719 11.6196 66.2434 11.4924 65.8009 11.4924C65.718 11.4924 65.6049 11.5014 65.4602 11.5186C65.4797 11.9069 65.4886 12.3125 65.4886 12.7361C65.4886 13.1999 65.4984 13.6605 65.5171 14.1161C65.6423 14.1415 65.7668 14.1538 65.892 14.1538C66.3052 14.1538 66.6118 14.0241 66.811 13.7647C67.0103 13.5061 67.1103 13.1901 67.1103 12.8174Z" fill="#B6B6B6"/>
<path d="M73.4456 14.7186H72.5217C72.5217 14.5905 72.4339 14.2276 72.259 13.6292H70.926C70.7455 14.2178 70.6552 14.5806 70.6552 14.7186H69.7866C69.7866 14.643 70.0111 14.0216 70.46 12.855C70.909 11.6885 71.1334 11.0457 71.1334 10.9275H72.2241C72.2241 11.0383 72.4274 11.6713 72.834 12.8279C73.2415 13.983 73.4456 14.6135 73.4456 14.7186ZM72.1126 13.0734C71.7841 12.0719 71.619 11.5301 71.619 11.4488H71.5726C71.5726 11.5243 71.4026 12.0661 71.0619 13.0734H72.1126Z" fill="#B6B6B6"/>
<path d="M76.8105 11.9201C76.8105 12.3839 76.6397 12.7271 76.2981 12.9479C75.9565 13.1695 75.5377 13.2795 75.0415 13.2795C74.9513 13.2795 74.887 13.2779 74.848 13.2738C74.848 13.6391 74.8586 14.1202 74.8797 14.7186H74.0688C74.0941 14.1579 74.1063 13.4963 74.1063 12.7353C74.1063 12.0367 74.0932 11.4333 74.0688 10.9268H74.5707C74.6414 10.9268 74.778 10.9235 74.9806 10.9177C75.1831 10.912 75.3579 10.9087 75.5059 10.9087C75.8711 10.9087 76.1802 10.9924 76.4323 11.1591C76.6852 11.3274 76.8105 11.5802 76.8105 11.9201ZM76.0663 12.0802C76.0663 11.6648 75.793 11.4571 75.2473 11.4571C75.1107 11.4571 74.9667 11.4719 74.8146 11.5006C74.8358 11.8675 74.8464 12.2829 74.8464 12.7468C74.8943 12.7509 74.9505 12.7525 75.0139 12.7525C75.7158 12.7525 76.0663 12.5284 76.0663 12.0802Z" fill="#B6B6B6"/>
<path d="M80.2709 11.9201C80.2709 12.3839 80.1001 12.7271 79.7585 12.9479C79.417 13.1695 78.9981 13.2795 78.502 13.2795C78.4117 13.2795 78.3475 13.2779 78.3084 13.2738C78.3084 13.6391 78.319 14.1202 78.3402 14.7186H77.5293C77.5545 14.1579 77.5667 13.4963 77.5667 12.7353C77.5667 12.0367 77.5537 11.4333 77.5293 10.9268H78.0311C78.1019 10.9268 78.2385 10.9235 78.441 10.9177C78.6435 10.912 78.8184 10.9087 78.9664 10.9087C79.3316 10.9087 79.6406 10.9924 79.8927 11.1591C80.1449 11.3274 80.2709 11.5802 80.2709 11.9201ZM79.5268 12.0802C79.5268 11.6648 79.2535 11.4571 78.7078 11.4571C78.5711 11.4571 78.4272 11.4719 78.2751 11.5006C78.2962 11.8675 78.3068 12.2829 78.3068 12.7468C78.3548 12.7509 78.4109 12.7525 78.4743 12.7525C79.1754 12.7525 79.5268 12.5284 79.5268 12.0802Z" fill="#B6B6B6"/>
<path d="M85.9282 12.7525C85.9282 13.3485 85.7477 13.8427 85.3858 14.2351C85.0238 14.6275 84.5773 14.8237 84.0446 14.8237C83.5371 14.8237 83.1118 14.6439 82.7694 14.2835C82.427 13.9231 82.2554 13.4658 82.2554 12.9101C82.2554 12.3141 82.4359 11.8199 82.7978 11.4275C83.1598 11.0351 83.6071 10.8389 84.139 10.8389C84.6465 10.8389 85.0718 11.0187 85.4142 11.3774C85.7574 11.7378 85.9282 12.1959 85.9282 12.7525ZM85.132 12.837C85.132 12.4315 85.0295 12.1023 84.823 11.8494C84.6172 11.5974 84.3634 11.471 84.0609 11.471C83.7803 11.471 83.5412 11.5982 83.3452 11.8527C83.1492 12.1072 83.0508 12.4282 83.0508 12.8165C83.0508 13.2204 83.1541 13.5488 83.3615 13.8024C83.568 14.0561 83.8218 14.1825 84.1219 14.1825C84.4025 14.1825 84.6416 14.0553 84.8376 13.7991C85.0344 13.5447 85.132 13.2237 85.132 12.837Z" fill="#B6B6B6"/>
<path d="M89.8394 14.7186H89.1269C89.1269 14.6389 88.8626 14.2186 88.3332 13.4576C87.7793 12.6556 87.4637 12.1072 87.3865 11.8125H87.3401C87.3881 12.2377 87.4125 12.6219 87.4125 12.9659C87.4125 13.4453 87.4255 14.0298 87.4532 14.7194H86.7432C86.7716 14.1176 86.7863 13.4568 86.7863 12.736C86.7863 12.0275 86.7716 11.4242 86.7432 10.9275H87.6004C87.6004 11.0301 87.8379 11.4414 88.3128 12.1589C88.8187 12.9215 89.1091 13.4395 89.1839 13.7113H89.227C89.1806 13.2786 89.1579 12.8903 89.1579 12.5464C89.1579 12.0202 89.1448 11.4808 89.1172 10.9275H89.8386C89.8117 11.4094 89.7979 12.0119 89.7979 12.736C89.7987 13.465 89.8126 14.1267 89.8394 14.7186Z" fill="#B6B6B6"/>
<path d="M55.8027 26.8666C55.8027 28.7482 55.2496 30.2481 54.1435 31.3645C52.8878 32.6944 51.2531 33.3602 49.2402 33.3602C47.3135 33.3602 45.6755 32.6862 44.3279 31.3366C42.9786 29.9878 42.3052 28.3156 42.3052 26.3215C42.3052 24.3275 42.9786 22.6553 44.3279 21.3065C45.6755 19.9577 47.3135 19.2837 49.2402 19.2837C50.1974 19.2837 51.1108 19.4717 51.981 19.8485C52.8504 20.2245 53.5474 20.7269 54.0687 21.3541L52.8943 22.5395C52.0119 21.4731 50.7936 20.9395 49.2402 20.9395C47.8348 20.9395 46.6205 21.4378 45.5958 22.4361C44.5702 23.4335 44.057 24.7289 44.057 26.3215C44.057 27.915 44.5702 29.2104 45.5958 30.2078C46.6214 31.2053 47.8356 31.7036 49.2402 31.7036C50.7318 31.7036 51.9745 31.202 52.9691 30.198C53.6157 29.5453 53.9882 28.6358 54.0874 27.4692H49.2402V25.8503H55.71C55.7718 26.2025 55.8027 26.5407 55.8027 26.8666Z" fill="#B6B6B6"/>
<path d="M57.8353 24.9383C58.7177 24.0032 59.8425 23.5361 61.2097 23.5361C62.5768 23.5361 63.7008 24.0032 64.584 24.9383C65.4665 25.8733 65.9073 27.0432 65.9073 28.4478C65.9073 29.8532 65.4665 31.023 64.584 31.9573C63.7008 32.8923 62.576 33.3594 61.2097 33.3594C59.8417 33.3594 58.7177 32.8923 57.8353 31.9573C56.9528 31.0222 56.5112 29.8532 56.5112 28.4478C56.5112 27.0423 56.9528 25.8725 57.8353 24.9383ZM59.113 30.8654C59.7034 31.4737 60.402 31.7783 61.2105 31.7783C62.0181 31.7783 62.7175 31.4737 63.308 30.8654C63.8984 30.2571 64.1936 29.4509 64.1936 28.4478C64.1936 27.4438 63.8984 26.6384 63.308 26.0293C62.7167 25.421 62.0181 25.1172 61.2105 25.1172C60.402 25.1172 59.7026 25.421 59.113 26.0293C58.5217 26.6384 58.2273 27.4446 58.2273 28.4478C58.2273 29.4518 58.5217 30.2571 59.113 30.8654Z" fill="#B6B6B6"/>
<path d="M67.8104 24.9383C68.6928 24.0032 69.8176 23.5361 71.1848 23.5361C72.5519 23.5361 73.6767 24.0032 74.5591 24.9383C75.4416 25.8733 75.8824 27.0432 75.8824 28.4478C75.8824 29.8532 75.4416 31.023 74.5591 31.9573C73.6759 32.8923 72.5511 33.3594 71.1848 33.3594C69.8168 33.3594 68.6928 32.8923 67.8104 31.9573C66.9279 31.0222 66.4863 29.8532 66.4863 28.4478C66.4863 27.0423 66.9279 25.8725 67.8104 24.9383ZM69.0873 30.8654C69.6777 31.4737 70.3763 31.7783 71.1848 31.7783C71.9924 31.7783 72.6918 31.4737 73.2822 30.8654C73.8727 30.2571 74.1679 29.4509 74.1679 28.4478C74.1679 27.4438 73.8727 26.6384 73.2822 26.0293C72.691 25.421 71.9924 25.1172 71.1848 25.1172C70.3763 25.1172 69.6777 25.421 69.0873 26.0293C68.496 26.6384 68.2016 27.4446 68.2016 28.4478C68.2016 29.4518 68.4968 30.2571 69.0873 30.8654Z" fill="#B6B6B6"/>
<path d="M80.9546 37.4246C79.8729 37.4246 78.9905 37.1521 78.3065 36.6062C77.6225 36.0602 77.1321 35.4355 76.8336 34.7336L78.4 34.0752C78.5741 34.576 78.8937 34.9971 79.3605 35.3354C79.8257 35.6744 80.3568 35.8435 80.9546 35.8435C81.8988 35.8435 82.6414 35.5578 83.1822 34.9873C83.723 34.4167 83.9931 33.6418 83.9931 32.6632V31.7791H83.9182C83.6198 32.2306 83.1968 32.6074 82.6503 32.9079C82.103 33.2091 81.4873 33.3602 80.8041 33.3602C79.6232 33.3602 78.6041 32.8898 77.7461 31.9482C76.8881 31.0074 76.4595 29.8409 76.4595 28.4477C76.4595 27.0546 76.8881 25.8881 77.7461 24.9465C78.6041 24.0057 79.6232 23.5353 80.8041 23.5353C81.4873 23.5353 82.103 23.6863 82.6503 23.9868C83.1968 24.2881 83.6189 24.6641 83.9182 25.1164H83.9931V23.8357H85.6343V32.5869C85.6343 34.168 85.1797 35.369 84.2728 36.1916C83.366 37.0133 82.2599 37.4246 80.9546 37.4246ZM81.0847 31.7791C81.8923 31.7791 82.5795 31.4778 83.1448 30.8752C83.71 30.2735 83.9931 29.4632 83.9931 28.4477C83.9931 27.4314 83.71 26.622 83.1448 26.0202C82.5795 25.4177 81.8923 25.1164 81.0847 25.1164C80.2885 25.1164 79.6053 25.4201 79.0344 26.0284C78.4626 26.6376 78.1763 27.4437 78.1763 28.4469C78.1763 29.4509 78.4626 30.2563 79.0344 30.8646C79.6053 31.4737 80.2893 31.7791 81.0847 31.7791Z" fill="#B6B6B6"/>
<path d="M88.9713 33.0581H87.2568V19.5834H88.9713V33.0581Z" fill="#B6B6B6"/>
<path d="M94.6384 33.3594C93.259 33.3594 92.1367 32.8955 91.273 31.9662C90.4084 31.0386 89.9766 29.8647 89.9766 28.4477C89.9766 27.1047 90.3962 25.9513 91.2355 24.9842C92.0741 24.0188 93.1468 23.5353 94.4513 23.5353C95.8063 23.5353 96.8904 23.981 97.7045 24.8718C98.5186 25.7625 98.9261 26.9545 98.9261 28.4477L98.9082 28.7679H91.6926C91.7422 29.6964 92.0497 30.4303 92.6157 30.9696C93.181 31.509 93.843 31.7791 94.601 31.7791C95.8315 31.7791 96.6643 31.252 97.0994 30.198L98.6276 30.8375C98.3299 31.5525 97.8379 32.1526 97.1547 32.6345C96.4716 33.118 95.633 33.3594 94.6384 33.3594ZM97.1002 27.3378C97.0628 26.81 96.8229 26.3092 96.3821 25.8322C95.9405 25.3553 95.2841 25.1172 94.4147 25.1172C93.7812 25.1172 93.2314 25.3175 92.7654 25.719C92.2993 26.1204 91.9789 26.6597 91.8049 27.3378H97.1002Z" fill="#B6B6B6"/>
<path d="M105.677 33.0581H103.961V19.5834H108.511C109.642 19.5834 110.621 19.9635 111.447 20.722C112.274 21.4822 112.686 22.4386 112.686 23.592C112.686 24.7462 112.273 25.7034 111.447 26.462C110.62 27.2213 109.642 27.6006 108.511 27.6006H105.677V33.0581H105.677ZM105.677 25.9448H108.548C109.268 25.9448 109.846 25.6993 110.282 25.21C110.717 24.7208 110.935 24.1814 110.935 23.5912C110.935 23.0017 110.717 22.4624 110.282 21.9731C109.846 21.483 109.268 21.2384 108.548 21.2384H105.677V25.9448Z" fill="#B6B6B6"/>
<path d="M115.52 33.0581H113.806V19.5834H115.52V33.0581Z" fill="#B6B6B6"/>
<path d="M119.939 33.3594C118.969 33.3594 118.158 33.0762 117.506 32.5122C116.853 31.9474 116.527 31.2012 116.527 30.2727C116.527 29.2687 116.912 28.4815 117.683 27.9109C118.454 27.3404 119.404 27.0547 120.536 27.0547C121.542 27.0547 122.37 27.2419 123.015 27.6195V27.356C123.015 26.6787 122.786 26.1361 122.326 25.7289C121.866 25.3209 121.3 25.1173 120.629 25.1173C120.132 25.1173 119.681 25.2371 119.277 25.4752C118.873 25.7133 118.597 26.04 118.447 26.4529L116.881 25.7757C117.092 25.224 117.508 24.7126 118.13 24.2422C118.751 23.7718 119.572 23.537 120.591 23.537C121.76 23.537 122.728 23.8826 123.499 24.5722C124.269 25.2626 124.655 26.2346 124.655 27.4898V33.0598H123.014V31.78H122.94C122.257 32.8324 121.256 33.3594 119.939 33.3594ZM120.218 31.7791C120.926 31.7791 121.569 31.5123 122.148 30.9787C122.726 30.446 123.015 29.8155 123.015 29.0873C122.53 28.6859 121.804 28.4856 120.833 28.4856C120 28.4856 119.373 28.6678 118.95 29.0307C118.528 29.3952 118.317 29.8212 118.317 30.3105C118.317 30.762 118.509 31.1191 118.895 31.3835C119.279 31.647 119.721 31.7791 120.218 31.7791Z" fill="#B6B6B6"/>
<path d="M128.385 37.1226H126.613L128.739 32.4745L124.972 23.8358H126.836L129.559 30.4607H129.597L132.244 23.8358H134.108L128.385 37.1226Z" fill="#B6B6B6"/>
<path d="M10.3111 25.0926C10.3111 20.7884 10.3127 16.4851 10.3094 12.181C10.3086 11.6531 10.4111 11.1704 10.7812 10.7714C10.9251 10.6163 11.0292 10.5752 11.2057 10.7567C14.075 13.712 16.9508 16.66 19.8258 19.6088C21.6875 21.5183 23.5491 23.4294 25.4189 25.3307C25.6003 25.5145 25.6157 25.6122 25.4238 25.8052C20.8514 30.3942 16.2823 34.9881 11.7254 39.5935C11.4472 39.8751 11.2512 39.8447 10.9845 39.6379C10.4965 39.2586 10.3094 38.7513 10.3094 38.1462C10.3103 35.5972 10.3054 33.0482 10.3046 30.4984C10.3037 28.6965 10.3046 26.8937 10.3046 25.0918C10.3062 25.0926 10.3086 25.0926 10.3111 25.0926Z" fill="#B6B6B6"/>
<path d="M11.9507 10.2797C12.2996 10.2765 12.5452 10.3791 12.7827 10.5129C18.6222 13.8155 24.4608 17.1206 30.3044 20.4158C30.5728 20.5668 30.5671 20.6522 30.3597 20.8574C29.0535 22.1545 27.7579 23.4623 26.4632 24.7708C26.3233 24.912 26.2387 24.9933 26.0508 24.8004C21.4053 20.0176 16.7516 15.2423 12.1003 10.4644C12.0613 10.4259 12.0296 10.3783 11.9507 10.2797Z" fill="#B6B6B6"/>
<path d="M13.2568 39.4843C17.4957 35.1597 21.7371 30.8383 25.9662 26.5038C26.2289 26.2345 26.3509 26.2706 26.586 26.5177C27.6603 27.6465 28.7502 28.7605 29.8457 29.8688C30.0384 30.0633 30.0547 30.1438 29.7928 30.2883C24.351 33.2945 18.915 36.3098 13.4772 39.3226C13.387 39.3727 13.304 39.454 13.2568 39.4843Z" fill="#B6B6B6"/>
<path d="M37.472 25.2125C37.4533 25.6977 37.2272 26.0384 36.884 26.2937C36.6303 26.4825 36.3497 26.6385 36.0732 26.7928C34.4279 27.7106 32.7785 28.6202 31.1364 29.5446C30.9152 29.6694 30.7835 29.6636 30.5997 29.4724C29.431 28.2541 28.2517 27.0457 27.0667 25.8438C26.8943 25.669 26.8894 25.5729 27.0667 25.3972C28.4477 24.0238 29.8213 22.643 31.1893 21.2556C31.3503 21.0923 31.4658 21.0734 31.6675 21.1883C33.2925 22.1176 34.9248 23.0346 36.5546 23.9565C37.0581 24.2405 37.4501 24.61 37.472 25.2125Z" fill="#B6B6B6"/>
</g>
<defs>
<clipPath id="clip0_877_1097">
<rect width="139" height="47" fill="white"/>
</clipPath>
</defs>
</svg>
