<svg width="24" height="22" viewBox="0 0 24 22" fill="none" xmlns="http://www.w3.org/2000/svg">
<path d="M21.5 0H2.5C1.125 0 0 1.125 0 2.5V15.5C0 16.875 1.125 18 2.5 18H9.4L8 20.5C7.825 20.825 7.825 21.2 8 21.5C8.175 21.8 8.5 22 8.85 22H15.15C15.5 22 15.825 21.8 16 21.5C16.175 21.2 16.175 20.825 16 20.5L14.6 18H21.5C22.875 18 24 16.875 24 15.5V2.5C24 1.125 22.875 0 21.5 0ZM15.15 21H8.85L10.525 18H13.45L15.15 21ZM23 15.5C23 16.325 22.325 17 21.5 17H13.75H10.25H2.5C1.675 17 1 16.325 1 15.5V14H23V15.5ZM23 13H1V2.5C1 1.675 1.675 1 2.5 1H21.5C22.325 1 23 1.675 23 2.5V13Z" fill="#E60028"/>
<path d="M11.75 16H12.25C12.525 16 12.75 15.775 12.75 15.5C12.75 15.225 12.525 15 12.25 15H11.75C11.475 15 11.25 15.225 11.25 15.5C11.25 15.775 11.475 16 11.75 16Z" fill="#E60028"/>
<path d="M18.6191 3H16.3524C16.1429 3 15.9714 3.17143 15.9714 3.38095C15.9714 3.59048 16.1429 3.7619 16.3524 3.7619H17.6667L15.7238 5.70476L15.0762 5.07619C14.7714 4.77143 14.3143 4.77143 14.0095 5.07619L10.8095 8.27619L9.72383 7.19048C9.43811 6.90476 8.94288 6.90476 8.65716 7.19048L6.79049 9.05714C6.63811 9.20952 6.63811 9.43809 6.79049 9.59048C6.86668 9.66667 6.96192 9.70476 7.05716 9.70476C7.1524 9.70476 7.24764 9.66667 7.32383 9.59048L9.19049 7.72381L10.5429 9.07619C10.6953 9.22857 10.9238 9.22857 11.0762 9.07619L14.5429 5.60952L15.4572 6.50476C15.6095 6.65714 15.8381 6.65714 15.9905 6.50476L18.2381 4.25714V5.64762C18.2381 5.85714 18.4095 6.02857 18.6191 6.02857C18.8286 6.02857 19 5.85714 19 5.64762V3.38095C19 3.17143 18.8286 3 18.6191 3Z" fill="#E60028"/>
<path d="M5.87616 9.97134L5.49521 10.3523C5.34283 10.5047 5.34283 10.7333 5.49521 10.8856C5.5714 10.9618 5.66663 10.9999 5.76187 10.9999C5.85711 10.9999 5.95235 10.9618 6.02854 10.8856L6.40949 10.5047C6.56187 10.3523 6.56187 10.1237 6.40949 9.97134C6.25711 9.81896 6.02854 9.81896 5.87616 9.97134Z" fill="#E60028"/>
</svg>
