<svg width="24" height="24" viewBox="0 0 24 24" fill="none" xmlns="http://www.w3.org/2000/svg">
<g clip-path="url(#clip0_868_213)">
<path d="M20.5714 9.23568C20.5714 4.47854 16.7357 0.642822 12 0.642822C7.26429 0.642822 3.42857 4.47854 3.42857 9.21425C3.42857 9.21425 3.42857 9.21425 3.42857 9.23568C1.52143 9.34282 0 10.9285 0 12.8571V13.2857C0 15.3 1.62857 16.9285 3.64286 16.9285H3.83571L5.35714 19.35C6.42857 21.0643 8.25 22.0714 10.2643 22.0714H10.5643C10.7571 22.8 11.4214 23.3571 12.2143 23.3571C13.1571 23.3571 13.9286 22.5857 13.9286 21.6428C13.9286 20.7 13.1571 19.9285 12.2143 19.9285C11.4214 19.9285 10.7571 20.4857 10.5643 21.2143H10.2643C8.55 21.2143 6.98571 20.3357 6.08571 18.8785L4.84286 16.9285H5.14286C5.61429 16.9285 6 16.5428 6 16.0714V10.0714C6 9.59997 5.61429 9.21425 5.14286 9.21425H4.28571C4.28571 4.94997 7.73571 1.49997 12 1.49997C16.2643 1.49997 19.7143 4.94997 19.7143 9.21425H18.8571C18.3857 9.21425 18 9.59997 18 10.0714V16.0714C18 16.5428 18.3857 16.9285 18.8571 16.9285H20.3571C22.3714 16.9285 24 15.3 24 13.2857V12.8571C24 10.9285 22.4786 9.34282 20.5714 9.23568ZM12.2143 20.7857C12.6857 20.7857 13.0714 21.1714 13.0714 21.6428C13.0714 22.1143 12.6857 22.5 12.2143 22.5C11.7429 22.5 11.3571 22.1143 11.3571 21.6428C11.3571 21.1714 11.7429 20.7857 12.2143 20.7857ZM5.14286 10.0714V16.0714H3.64286C2.1 16.0714 0.857143 14.8285 0.857143 13.2857V12.8571C0.857143 11.3143 2.1 10.0714 3.64286 10.0714H5.14286ZM23.1429 13.2857C23.1429 14.8285 21.9 16.0714 20.3571 16.0714H18.8571V10.0714H20.3571C21.9 10.0714 23.1429 11.3143 23.1429 12.8571V13.2857Z" fill="#E60028"/>
<path d="M15.5572 3.8784C15.5143 3.85697 15.45 3.81411 15.3858 3.77126C15.3215 3.7284 15.2572 3.68554 15.2143 3.66411C15.0215 3.53554 14.7429 3.59983 14.6357 3.81411C14.5286 4.0284 14.5715 4.26411 14.7857 4.39268C14.8286 4.41411 14.8929 4.45697 14.9572 4.49983C15.0215 4.54268 15.0857 4.58554 15.15 4.60697C15.2143 4.64983 15.3 4.67126 15.3643 4.67126C15.5143 4.67126 15.6429 4.60697 15.7286 4.45697C15.8358 4.26411 15.7715 4.00697 15.5572 3.8784Z" fill="#E60028"/>
<path d="M12 2.78564C10.1785 2.78564 8.46424 3.5785 7.28567 4.94993C7.13567 5.12136 7.1571 5.39993 7.32853 5.54993C7.41424 5.61422 7.49996 5.65707 7.6071 5.65707C7.73567 5.65707 7.84282 5.61422 7.92853 5.50707C8.9571 4.3285 10.4357 3.64279 12 3.64279C12.3857 3.64279 12.7714 3.68564 13.1571 3.77136C13.3928 3.81422 13.6071 3.66422 13.6714 3.44993C13.7357 3.23564 13.5642 2.99993 13.35 2.93564C12.9 2.8285 12.45 2.78564 12 2.78564Z" fill="#E60028"/>
</g>
<defs>
<clipPath id="clip0_868_213">
<rect width="24" height="24" fill="white"/>
</clipPath>
</defs>
</svg>
