<svg width="16" height="12" viewBox="0 0 16 12" fill="none" xmlns="http://www.w3.org/2000/svg">
<path d="M15.32 1.15636C14.886 0.314182 14.415 0.159273 13.456 0.100364C12.498 0.0294546 10.089 0 8.002 0C5.911 0 3.501 0.0294546 2.544 0.0992728C1.587 0.159273 1.115 0.313091 0.677 1.15636C0.23 1.99745 0 3.44618 0 5.99673C0 5.99891 0 6 0 6C0 6.00218 0 6.00327 0 6.00327V6.00546C0 8.54509 0.23 10.0047 0.677 10.8371C1.115 11.6793 1.586 11.832 2.543 11.9029C3.501 11.964 5.911 12 8.002 12C10.089 12 12.498 11.964 13.457 11.904C14.416 11.8331 14.887 11.6804 15.321 10.8382C15.772 10.0058 16 8.54618 16 6.00655C16 6.00655 16 6.00327 16 6.00109C16 6.00109 16 5.99891 16 5.99782C16 3.44618 15.772 1.99745 15.32 1.15636ZM6 9.27273V2.72727L11 6L6 9.27273Z" fill="white"/>
</svg>
